<svg width="250pt" height="250pt" viewBox="0 0 250 250" xmlns="http://www.w3.org/2000/svg"><g><path d="M56.48 96.04c.04-22.11-.02-44.23.03-66.34 11.07-.02 22.23 2.74 31.8 8.36 19.57-11.23 44.91-11.43 64.44.01 9.71-5.48 20.83-8.49 32-8.34 0 64.09-.01 128.17.01 192.25-30.69.42-61.22-11.23-84.32-31.35-27.21-23.37-43.81-58.67-43.96-94.59m22.3-39.33c-9.53 5.63-14.82 17.42-12.8 28.28 1.67 10.94 10.68 20.27 21.53 22.36 6.89 1.52 14.19.06 20.23-3.48 4.24 4.25 8.5 8.49 12.74 12.75 4.27-4.25 8.52-8.54 12.95-12.64 12.14 7.65 29.72 4.18 37.55-7.97 4.33-6.36 5.84-14.56 3.99-22.03-2.38-10.37-11.32-18.92-21.84-20.68-5.87-.85-12.09-.33-17.4 2.46-8.48 4.19-14.38 12.96-15.17 22.39-.33-9.59-6.64-18.46-15.18-22.61-8.3-4.17-18.7-3.7-26.6 1.17zM83.79 64.8c4.24-2.83 9.55-3.01 14.42-2.1-3.55 2.03-5.97 6.22-4.94 10.34.82 5.55 7.54 9.09 12.62 6.76 2.17-.75 3.54-2.7 5.08-4.28.69 4.99.46 10.4-2.56 14.65-3.8 6.02-11.36 9.42-18.37 8.05-6.43-1.11-12.05-5.91-14.07-12.12-2.87-7.78.71-17.15 7.82-21.3zM143.36 62.81c4.94-1.11 10.33-.44 14.59 2.4 6.9 4.32 10.23 13.62 7.29 21.28-3.03 9.16-14.1 14.69-23.17 11.09-8.97-2.96-13.92-13.2-11.66-22.21 1.93 2.91 4.89 5.52 8.64 5.18 5.5.3 10.06-5.27 9.15-10.59-.27-3.07-2.48-5.4-4.84-7.15z"/></g><path fill="#fff" d="M78.78 56.71c7.9-4.87 18.3-5.34 26.6-1.17 8.54 4.15 14.85 13.02 15.18 22.61.79-9.43 6.69-18.2 15.17-22.39 5.31-2.79 11.53-3.31 17.4-2.46 10.52 1.76 19.46 10.31 21.84 20.68 1.85 7.47.34 15.67-3.99 22.03-7.83 12.15-25.41 15.62-37.55 7.97-4.43 4.1-8.68 8.39-12.95 12.64-4.24-4.26-8.5-8.5-12.74-12.75-6.04 3.54-13.34 5-20.23 3.48-10.85-2.09-19.86-11.42-21.53-22.36-2.02-10.86 3.27-22.65 12.8-28.28m5.01 8.09c-7.11 4.15-10.69 13.52-7.82 21.3 2.02 6.21 7.64 11.01 14.07 12.12 7.01 1.37 14.57-2.03 18.37-8.05 3.02-4.25 3.25-9.66 2.56-14.65-1.54 1.58-2.91 3.53-5.08 4.28-5.08 2.33-11.8-1.21-12.62-6.76-1.03-4.12 1.39-8.31 4.94-10.34-4.87-.91-10.18-.73-14.42 2.1m59.57-1.99c2.36 1.75 4.57 4.08 4.84 7.15.91 5.32-3.65 10.89-9.15 10.59-3.75.34-6.71-2.27-8.64-5.18-2.26 9.01 2.69 19.25 11.66 22.21 9.07 3.6 20.14-1.93 23.17-11.09 2.94-7.66-.39-16.96-7.29-21.28-4.26-2.84-9.65-3.51-14.59-2.4z"/></svg>